<?xml version="1.0" standalone="no"?>
<!DOCTYPE svg PUBLIC "-//W3C//DTD SVG 20010904//EN"
 "http://www.w3.org/TR/2001/REC-SVG-20010904/DTD/svg10.dtd">
<svg version="1.0" xmlns="http://www.w3.org/2000/svg"
 width="2134.000000pt" height="2134.000000pt" viewBox="0 0 2134.000000 2134.000000"
 preserveAspectRatio="xMidYMid meet">
<metadata>
Created by potrace 1.14, written by Peter Selinger 2001-2017
</metadata>
<g transform="translate(0.000000,2134.000000) scale(0.100000,-0.100000)"
fill="#000000" stroke="none">
<path d="M4610 20074 c-215 -57 -378 -231 -413 -443 -9 -51 -12 -2280 -11
-8967 l0 -8899 27 -78 c71 -206 240 -352 442 -383 57 -8 11927 -9 11991 -1
126 17 246 76 327 162 64 67 127 177 141 247 3 13 8 34 11 48 3 14 6 594 6
1290 l1 1265 -27 79 c-67 203 -237 352 -436 382 -30 4 -1721 8 -3759 9 -3942
1 -3746 -1 -3858 46 -94 41 -188 122 -246 214 -40 64 -52 90 -72 167 -15 58
-17 213 -17 1798 0 954 3 1757 7 1784 19 137 80 242 207 359 47 44 175 101
251 112 24 4 1420 7 3103 7 2972 0 3062 1 3134 19 81 21 162 62 229 117 89 73
169 217 188 337 9 61 10 2330 1 2400 -28 208 -174 387 -374 456 l-68 24 -1555
2 c-855 2 -2257 4 -3115 5 l-1560 3 -65 24 c-208 76 -352 254 -376 462 -9 80
-9 2914 0 2987 3 29 13 69 21 88 8 19 12 34 9 34 -5 0 32 71 61 115 79 121
237 221 380 240 17 2 1704 4 3750 5 2563 0 3736 4 3770 11 127 27 276 127 347
234 37 54 75 143 85 196 4 24 8 618 8 1319 0 1403 4 1313 -64 1444 -61 119
-179 220 -312 268 l-64 23 -6025 2 c-5256 1 -6032 0 -6080 -13z"/>
</g>
</svg>
